# xmcd
#
# Track frame offsets:
#	150
#	15631
#	34836
#	51838
#	69689
#	88281
#	107383
#	121991
#	139661
#	154169
#	167156
#	181418
#	196995
#	214235
#	228653
#	240466
#	257600
#	270829
#	288466
#
# Disc length: 4002 seconds
#
# Revision: 0
# Processed by: cddbd v1.5PL3 Copyright (c) Steve Scherf et al.
# Submitted via: dBpowerAMP V4.0
#
DISCID=0e0fa013
DTITLE=ALCYMAR MONTEIRO - ABOIOS E VAQUEIROS
DYEAR=2004
DGENRE=VAQUEJADA
TTITLE0=calor da vaquejada
TTITLE1=na fazenda de vovô
TTITLE2=coração de pedra
TTITLE3=reizado a são josé
TTITLE4=currutela
TTITLE5=povo guerreiro
TTITLE6=vaquejada na bahia
TTITLE7=araripina
TTITLE8=boca de forno
TTITLE9=maria gulora
TTITLE10=forró na sala de reboco
TTITLE11=grande vaquejada de xerém
TTITLE12=se tu quiser
TTITLE13=como é grande a natureza
TTITLE14=quero voltar pra mim
TTITLE15=boi de carro
TTITLE16=vaqueiro nota zero
TTITLE17=o fazendeiro
TTITLE18=toque de 8 baixos
EXTD=
EXTT0=
EXTT1=
EXTT2=
EXTT3=
EXTT4=
EXTT5=
EXTT6=
EXTT7=
EXTT8=
EXTT9=
EXTT10=
EXTT11=
EXTT12=
EXTT13=
EXTT14=
EXTT15=
EXTT16=
EXTT17=
EXTT18=
PLAYORDER=
